<?xml version="1.0" encoding="utf-8"?>
<!-- Generator: Adobe Illustrator 15.1.0, SVG Export Plug-In . SVG Version: 6.00 Build 0)  -->
<!DOCTYPE svg PUBLIC "-//W3C//DTD SVG 1.1//EN" "http://www.w3.org/Graphics/SVG/1.1/DTD/svg11.dtd">
<svg version="1.1" id="Layer_1" xmlns="http://www.w3.org/2000/svg" xmlns:xlink="http://www.w3.org/1999/xlink" x="0px" y="0px"
	 width="256px" height="256px" viewBox="292.945 169.64 256 256" enable-background="new 292.945 169.64 256 256"
	 xml:space="preserve">
<title></title>
<g>
	<path fill="#6CAEF1" d="M489.025,169.49h-136.16c-33.175,0-60.07,26.895-60.07,60.07v136.16c0,33.176,26.895,60.071,60.07,60.071
		h136.16c33.176,0,60.07-26.896,60.07-60.071V229.56C549.095,196.384,522.2,169.49,489.025,169.49z M420.945,372.727
		c-41.47,0-75.088-33.616-75.088-75.087c0-41.47,33.619-75.088,75.088-75.088c41.471,0,75.088,33.618,75.088,75.088l0,0
		C496.022,339.106,462.41,372.717,420.945,372.727z"/>
	<path fill="#2482F1" d="M420.945,193.504c-57.513,0-104.136,46.623-104.136,104.136c0,57.513,46.623,104.137,104.136,104.137
		c57.513,0,104.137-46.624,104.137-104.137C524.995,240.163,478.421,193.589,420.945,193.504z M419.694,362.061
		c-5.527,0-10.007-4.48-10.007-10.007s4.48-10.008,10.007-10.008s10.007,4.481,10.007,10.008l0,0
		C429.701,357.581,425.221,362.061,419.694,362.061L419.694,362.061z M449.715,289.196c-1.116,1.488-2.493,2.76-4.064,3.753
		c-14.388,10.632-21.267,16.575-20.017,32.21c0.425,3.532-2.097,6.738-5.628,7.163c-0.104,0.012-0.208,0.022-0.312,0.028h-0.625
		c-3.408,0.047-6.272-2.547-6.567-5.94c-2.189-23.767,10.944-33.774,25.018-44.094c0.938-0.938,1.876-1.564,2.814-2.501
		c6.613-5.854,8.97-15.158,5.941-23.455c-3.555-8.221-11.684-13.516-20.641-13.446c-9.693-0.313-20.326,3.44-25.955,9.694
		c-3.872,3.849-5.722,9.286-5.004,14.698c0.433,3.714-2.228,7.074-5.941,7.506c-3.714,0.431-7.074-2.229-7.505-5.942l0,0
		c-1.077-9.277,2.016-18.555,8.444-25.331c9.442-9.589,22.52-14.706,35.961-14.073c14.475-0.064,27.507,8.749,32.836,22.204
		C463.49,264.793,460.024,279.65,449.715,289.196L449.715,289.196z"/>
</g>
</svg>
